<?xml version="1.0" encoding="utf-8"?>
<!-- Generator: Adobe Illustrator 16.0.0, SVG Export Plug-In . SVG Version: 6.00 Build 0)  -->
<!DOCTYPE svg PUBLIC "-//W3C//DTD SVG 1.1//EN" "http://www.w3.org/Graphics/SVG/1.1/DTD/svg11.dtd">
<svg version="1.1" id="Layer_1" xmlns="http://www.w3.org/2000/svg" xmlns:xlink="http://www.w3.org/1999/xlink" x="0px" y="0px" width="2135.191px" height="273.451px" viewBox="0 0 2135.191 273.451" enable-background="new 0 0 2135.191 273.451" xml:space="preserve">
<g>
	<path fill="#D1D3D4" d="M1743.364,153.747v30.394h26.562c13.938,0,23.264-2.663,23.264-15.35c0-12.381-9.325-15.044-23.264-15.044h-26.569H1743.364z M1743.364,107.682v29.531h24.286c12.301,0,23.037-1.877,23.037-14.961c0-12.61-10.896-14.57-23.197-14.57H1743.364z M1768.196,91.07c23.43,0,41.057,8.067,41.057,29.854c0,11.282-7.289,20.681-16.928,23.344c10.417,3.056,19.431,12.541,19.431,25.147c0,21.847-16.056,31.332-41.058,31.332h-45.037V91.077h42.535V91.07z M1838.694,163.226c0,13.153,8.533,24.043,22.638,24.043c13.553,0,22.646-10.337,22.646-24.043c0-13.712-9.093-24.049-22.646-24.049C1847.228,139.177,1838.694,150.06,1838.694,163.226L1838.694,163.226z M1899.327,200.748h-16.375v-9.006c-5.165,6.656-12.927,10.97-23.583,10.97c-20.995,0-37.516-16.528-37.516-39.486s16.527-39.485,37.522-39.485c10.649,0,18.411,4.393,23.583,11.043v-9.079h16.368V200.748z M1969.825,144.501c-4.546-2.822-13.865-6.423-23.197-6.423c-8.933,0-14.178,3.601-14.178,8.933c0,5.245,5.484,6.736,12.381,7.755l7.754,1.172c16.382,2.35,26.094,9.325,26.094,22.172c0,14.418-12.541,24.522-34.168,24.522c-7.748,0-21.221-1.491-32.19-9.632l7.602-12.308c5.405,4.153,12.534,7.682,24.756,7.682c11.202,0,17.073-3.528,17.073-9.166c0-4.227-4.073-7.049-13.006-8.308l-7.835-1.018c-16.607-2.277-25.447-9.945-25.447-22.014c0-14.877,11.895-24.049,31.005-24.049c11.763,0,22.646,2.901,30.407,7.907L1969.825,144.501z"/>
	<g transform="translate(81.855 12.885)">
		<defs>
			<filter id="Adobe_OpacityMaskFilter" filterUnits="userSpaceOnUse" x="1904.405" y="110.855" width="72.868" height="78.972">
				<feColorMatrix  type="matrix" values="1 0 0 0 0  0 1 0 0 0  0 0 1 0 0  0 0 0 1 0"/>
			</filter>
		</defs>
		<mask maskUnits="userSpaceOnUse" x="1904.405" y="110.855" width="72.868" height="78.972" id="b_1_">
			<g filter="url(#Adobe_OpacityMaskFilter)">
				<path id="a_1_" fill="#FFFFFF" d="M1977.266,189.827v-78.972h-72.861v78.972H1977.266z"/>
			</g>
		</mask>
		<path mask="url(#b_1_)" fill="#D1D3D4" d="M1921.572,143.925h38.921c-1.791-11.683-8.607-18.499-19.018-18.499C1929.799,125.426,1923.296,132.941,1921.572,143.925 M1977.273,150.261c0,2.109-0.153,4.233-0.312,6.11h-55.468c2.189,13.473,11.675,19.117,22.318,19.117c7.528,0,15.517-2.982,21.707-7.908l8.154,11.662c-9.173,7.842-19.517,10.584-30.873,10.584c-22.485,0-38.395-15.676-38.395-39.486c0-23.504,15.283-39.485,37.376-39.485c20.995,0,35.406,15.981,35.485,39.406"/>
	</g>
	<g transform="translate(0 4.014)">
		<defs>
				<filter id="Adobe_OpacityMaskFilter_1_" filterUnits="userSpaceOnUse" x="1427.427" y="59.163" width="231.321" height="165.016">
				<feColorMatrix  type="matrix" values="1 0 0 0 0  0 1 0 0 0  0 0 1 0 0  0 0 0 1 0"/>
			</filter>
		</defs>
		<mask maskUnits="userSpaceOnUse" x="1427.427" y="59.163" width="231.321" height="165.016" id="d_1_">
			<g filter="url(#Adobe_OpacityMaskFilter_1_)">
				<path id="c_1_" fill="#FFFFFF" d="M1543.089,224.178h-115.662V59.17h231.321v165.009H1543.089z"/>
			</g>
		</mask>
		<path mask="url(#d_1_)" fill="#D1D3D4" d="M1561.584,204.935l34.64-51.954l34.624,51.954H1561.584z M1650.854,215.632c2.905-5.418,2.223-12.041-1.861-18.172l-41.21-61.818l50.966-76.479h-23.121l-39.403,59.126l-33.271-49.91c-3.871-5.795-9.646-9.126-15.846-9.126c-6.197,0-11.972,3.331-15.836,9.133l-103.844,155.793h23.121l96.571-144.867l37.543,56.323l-41.217,61.839c-4.084,6.124-4.756,12.74-1.854,18.172c2.896,5.418,8.794,8.533,16.155,8.533h76.955c7.369,0,13.257-3.115,16.152-8.533V215.632z"/>
	</g>
</g>
<g>
	<path fill="#D1D3D4" d="M56.756,94.126h20.322l1.711,14.332h0.855c4.419-4.706,9.232-8.697,14.439-11.979c5.204-3.279,11.086-4.92,17.648-4.92c7.701,0,13.867,1.641,18.503,4.92c4.632,3.282,8.162,7.915,10.589,13.904c4.99-5.418,10.194-9.91,15.616-13.477c5.418-3.563,11.478-5.348,18.183-5.348c11.124,0,19.322,3.603,24.6,10.803c5.274,7.203,7.915,17.507,7.915,30.911v65.885h-24.814v-62.677c0-8.697-1.32-14.83-3.958-18.396c-2.64-3.563-6.668-5.348-12.086-5.348c-6.561,0-13.904,4.352-22.033,13.049v73.373h-24.6v-62.677c0-8.697-1.32-14.83-3.958-18.396c-2.64-3.563-6.738-5.348-12.3-5.348c-6.561,0-13.904,4.352-22.033,13.049v73.373h-24.6V94.126z"/>
	<path fill="#D1D3D4" d="M230.237,146.75c0-8.697,1.354-16.472,4.064-23.317c2.707-6.845,6.38-12.621,11.017-17.327c4.632-4.706,9.947-8.306,15.937-10.802c5.989-2.494,12.263-3.744,18.824-3.744c6.558,0,12.868,1.25,18.932,3.744c6.06,2.497,11.371,6.096,15.937,10.802c4.562,4.707,8.235,10.482,11.017,17.327c2.781,6.845,4.171,14.62,4.171,23.317c0,8.701-1.391,16.471-4.171,23.316c-2.781,6.846-6.454,12.621-11.017,17.328c-4.566,4.705-9.877,8.271-15.937,10.695c-6.063,2.423-12.374,3.637-18.932,3.637c-6.561,0-12.835-1.214-18.824-3.637c-5.99-2.424-11.304-5.99-15.937-10.695c-4.636-4.707-8.31-10.482-11.017-17.328C231.591,163.221,230.237,155.45,230.237,146.75z M255.479,146.75c0,10.555,2.173,19.005,6.524,25.349c4.349,6.347,10.375,9.519,18.076,9.519c7.701,0,13.761-3.172,18.183-9.519c4.419-6.344,6.631-14.794,6.631-25.349c0-10.696-2.212-19.216-6.631-25.563c-4.422-6.344-10.481-9.519-18.183-9.519c-7.701,0-13.727,3.175-18.076,9.519C257.652,127.534,255.479,136.054,255.479,146.75z"/>
	<path fill="#D1D3D4" d="M358.157,113.593h-14.974V95.196l16.257-1.07l2.995-28.665h20.536v28.665h26.739v19.466h-26.739v50.056c0,12.267,4.92,18.396,14.76,18.396c1.852,0,3.744-0.214,5.669-0.642s3.67-0.996,5.241-1.711l4.278,18.182c-2.854,1-6.097,1.889-9.733,2.675c-3.637,0.782-7.524,1.177-11.658,1.177c-6.134,0-11.304-0.93-15.509-2.781c-4.208-1.852-7.631-4.455-10.268-7.809c-2.641-3.349-4.566-7.343-5.776-11.979c-1.213-4.633-1.818-9.803-1.818-15.509V113.593z"/>
	<path fill="#D1D3D4" d="M444.149,75.73c-4.422,0-8.059-1.284-10.91-3.851c-2.854-2.567-4.278-5.916-4.278-10.054c0-4.135,1.424-7.521,4.278-10.161c2.851-2.637,6.487-3.958,10.91-3.958c4.418,0,8.055,1.32,10.909,3.958c2.851,2.641,4.278,6.026,4.278,10.161c0,4.138-1.427,7.487-4.278,10.054C452.204,74.446,448.567,75.73,444.149,75.73z M431.742,94.126h24.6v105.032h-24.6V94.126z"/>
	<path fill="#D1D3D4" d="M474.737,94.126h25.028l16.686,54.548c1.424,5.134,2.888,10.342,4.385,15.616c1.497,5.277,2.958,10.625,4.385,16.044h0.855c1.568-5.419,3.065-10.767,4.492-16.044c1.424-5.273,2.921-10.481,4.492-15.616l16.686-54.548h23.744l-35.724,105.032h-28.45L474.737,94.126z"/>
	<path fill="#D1D3D4" d="M585.544,146.75c0-8.697,1.354-16.472,4.064-23.317c2.707-6.845,6.38-12.621,11.017-17.327c4.632-4.706,9.947-8.306,15.937-10.802c5.989-2.494,12.263-3.744,18.824-3.744c6.558,0,12.869,1.25,18.931,3.744c6.061,2.497,11.371,6.096,15.938,10.802c4.562,4.707,8.234,10.482,11.016,17.327s4.172,14.62,4.172,23.317c0,8.701-1.391,16.471-4.172,23.316c-2.781,6.846-6.453,12.621-11.016,17.328c-4.566,4.705-9.877,8.271-15.938,10.695c-6.062,2.423-12.373,3.637-18.931,3.637c-6.561,0-12.835-1.214-18.824-3.637c-5.99-2.424-11.304-5.99-15.937-10.695c-4.636-4.707-8.31-10.482-11.017-17.328C586.897,163.221,585.544,155.45,585.544,146.75z M610.786,146.75c0,10.555,2.173,19.005,6.524,25.349c4.349,6.347,10.375,9.519,18.076,9.519c7.701,0,13.761-3.172,18.183-9.519c4.418-6.344,6.631-14.794,6.631-25.349c0-10.696-2.213-19.216-6.631-25.563c-4.422-6.344-10.482-9.519-18.183-9.519c-7.701,0-13.727,3.175-18.076,9.519C612.958,127.534,610.786,136.054,610.786,146.75z"/>
	<path fill="#D1D3D4" d="M713.89,96.479h8.129l0.855,15.83h0.643c4.562-5.274,9.659-9.66,15.294-13.156c5.633-3.493,11.301-5.241,17.007-5.241c8.269,0,14.616,1.892,19.038,5.668c4.419,3.78,7.558,8.877,9.412,15.295c5.989-6.417,11.799-11.515,17.435-15.295c5.632-3.777,11.444-5.668,17.434-5.668c20.536,0,30.804,13.122,30.804,39.36v65.885h-9.626v-64.602c0-10.98-1.855-19.072-5.562-24.279c-3.71-5.204-9.485-7.808-17.326-7.808c-9.272,0-19.54,6.417-30.804,19.252v77.437h-9.412v-64.602c0-10.98-1.855-19.072-5.562-24.279c-3.71-5.204-9.556-7.808-17.541-7.808c-9.271,0-19.539,6.417-30.803,19.252v77.437h-9.413V96.479z"/>
	<path fill="#D1D3D4" d="M879.031,148.033c0-8.413,1.247-15.97,3.744-22.675c2.493-6.702,5.846-12.37,10.054-17.006c4.205-4.632,8.984-8.199,14.332-10.695c5.348-2.494,10.873-3.744,16.578-3.744c12.264,0,21.89,4.138,28.879,12.407c6.985,8.272,10.481,19.968,10.481,35.082c0,1.284,0,2.567,0,3.851c0,1.283-0.144,2.567-0.428,3.851h-74.014c0.14,6.417,1.14,12.373,2.994,17.861c1.852,5.492,4.456,10.197,7.809,14.119c3.349,3.924,7.38,6.988,12.086,9.197c4.706,2.213,9.98,3.316,15.829,3.316c5.562,0,10.589-0.819,15.081-2.461c4.492-1.637,8.664-3.883,12.514-6.738l3.851,7.273c-4.138,2.427-8.663,4.707-13.583,6.846s-11.16,3.209-18.718,3.209c-6.562,0-12.728-1.214-18.504-3.637c-5.775-2.424-10.802-5.953-15.08-10.589c-4.278-4.633-7.668-10.269-10.161-16.899C880.278,163.97,879.031,156.448,879.031,148.033z M954.115,141.829c0-13.263-2.71-23.209-8.129-29.841c-5.421-6.631-12.765-9.947-22.032-9.947c-4.423,0-8.631,0.929-12.621,2.781c-3.994,1.855-7.594,4.492-10.803,7.915c-3.209,3.423-5.85,7.594-7.915,12.514c-2.069,4.92-3.39,10.448-3.957,16.578H954.115z"/>
	<path fill="#D1D3D4" d="M982.348,148.033c0-8.269,1.21-15.756,3.637-22.461c2.424-6.702,5.739-12.407,9.947-17.113c4.205-4.706,9.055-8.306,14.546-10.802c5.488-2.494,11.301-3.744,17.435-3.744c6.273,0,11.729,1.106,16.364,3.315c4.633,2.213,9.519,5.314,14.653,9.306l-0.428-18.825V45.354h9.412v153.804h-8.129l-0.855-13.263h-0.643c-4.138,4.138-9.021,7.809-14.652,11.017c-5.636,3.208-11.872,4.813-18.718,4.813c-12.979,0-23.316-4.6-31.018-13.798S982.348,165.433,982.348,148.033z M992.403,148.033c0,6.845,0.748,13.048,2.246,18.611c1.497,5.562,3.67,10.305,6.524,14.225c2.851,3.924,6.38,6.989,10.589,9.199c4.204,2.212,9.018,3.314,14.438,3.314c5.702,0,11.157-1.46,16.364-4.385c5.204-2.921,10.516-7.092,15.938-12.514v-60.965c-5.422-4.847-10.519-8.27-15.295-10.268c-4.78-1.996-9.663-2.995-14.653-2.995c-5.134,0-9.914,1.176-14.332,3.529c-4.423,2.353-8.236,5.562-11.444,9.626c-3.209,4.064-5.743,8.914-7.595,14.546C993.329,135.592,992.403,141.615,992.403,148.033z"/>
	<path fill="#D1D3D4" d="M1112.192,71.666c-2.426,0-4.458-0.782-6.096-2.353c-1.642-1.567-2.46-3.563-2.46-5.99c0-2.707,0.818-4.813,2.46-6.311c1.638-1.497,3.67-2.246,6.096-2.246c2.424,0,4.456,0.749,6.097,2.246c1.638,1.498,2.46,3.604,2.46,6.311c0,2.427-0.822,4.422-2.46,5.99C1116.648,70.883,1114.616,71.666,1112.192,71.666z M1107.272,96.479h9.413v102.679h-9.413V96.479z"/>
	<path fill="#D1D3D4" d="M1150.48,173.489c0-11.265,5.348-19.895,16.044-25.884c10.695-5.99,27.451-10.268,50.27-12.835c0.141-3.85-0.107-7.734-0.749-11.658c-0.642-3.92-1.854-7.414-3.637-10.482c-1.784-3.065-4.278-5.562-7.486-7.487c-3.209-1.925-7.311-2.888-12.3-2.888c-6.989,0-13.337,1.357-19.039,4.064c-5.705,2.711-10.268,5.348-13.69,7.915l-4.278-7.059c1.852-1.284,4.098-2.708,6.738-4.278c2.638-1.567,5.562-2.995,8.771-4.278c3.209-1.284,6.738-2.386,10.589-3.315c3.851-0.926,7.842-1.391,11.979-1.391c6.13,0,11.264,1.036,15.401,3.102c4.135,2.069,7.487,4.887,10.054,8.45c2.567,3.566,4.386,7.738,5.455,12.514c1.069,4.779,1.604,9.947,1.604,15.509v65.671h-7.915l-1.069-13.263h-0.428c-5.277,4.138-10.946,7.809-17.006,11.017c-6.063,3.208-12.515,4.813-19.359,4.813c-4.138,0-7.988-0.572-11.552-1.712c-3.566-1.14-6.738-2.851-9.519-5.134c-2.781-2.279-4.957-5.204-6.524-8.771C1151.262,182.546,1150.48,178.339,1150.48,173.489z M1160.32,173.061c0,7.417,2.14,12.694,6.418,15.829c4.278,3.139,9.339,4.707,15.188,4.707c5.989,0,11.691-1.424,17.113-4.278c5.418-2.851,11.337-6.985,17.755-12.407v-34.868c-10.556,1.284-19.433,2.854-26.633,4.707c-7.202,1.855-13.015,4.064-17.434,6.631c-4.422,2.567-7.594,5.491-9.52,8.771C1161.283,165.433,1160.32,169.069,1160.32,173.061z"/>
</g>
<text transform="matrix(1 0 0 1 1307.168 182.5166)" fill="#D1D3D4" font-family="'MyriadPro-Semibold'" font-size="150">+</text>
</svg>
